<svg width="360" height="72" viewBox="0 0 360 72" fill="none" xmlns="http://www.w3.org/2000/svg" role="img" aria-label="TradeReview AI">
  <defs>
    <linearGradient id="limeStroke" x1="8" y1="60" x2="64" y2="8" gradientUnits="userSpaceOnUse">
      <stop stop-color="#A3E635"/>
      <stop offset="1" stop-color="#FFFFFF"/>
    </linearGradient>
    <filter id="soft" x="-40%" y="-40%" width="180%" height="180%">
      <feGaussianBlur stdDeviation="3.5" result="blur"/>
      <feColorMatrix in="blur" type="matrix" values="0 0 0 0 0.64 0 0 0 0 0.90 0 0 0 0 0.21 0 0 0 .42 0"/>
      <feBlend in="SourceGraphic"/>
    </filter>
  </defs>
  <g filter="url(#soft)">
    <rect x="8" y="8" width="56" height="56" rx="14" fill="#18181B" stroke="#2A2A2E"/>
    <path d="M19 49L29 39L37 43L52 24" stroke="url(#limeStroke)" stroke-width="3.6" stroke-linecap="round" stroke-linejoin="round"/>
    <path d="M22 32V49M33 24V41M44 30V46M55 19V30" stroke="#A3E635" stroke-width="2" stroke-linecap="round" opacity=".85"/>
    <rect x="19" y="39" width="6" height="10" rx="1.5" fill="#A3E635"/>
    <rect x="30" y="30" width="6" height="11" rx="1.5" fill="#FFFFFF" opacity=".88"/>
    <rect x="41" y="35" width="6" height="9" rx="1.5" fill="#A3E635"/>
    <rect x="52" y="22" width="6" height="13" rx="1.5" fill="#FFFFFF" opacity=".88"/>
  </g>
  <text x="78" y="39" fill="#FFFFFF" font-family="Inter, Arial, sans-serif" font-size="29" font-weight="700" letter-spacing="-.9">TradeReview AI</text>
  <text x="80" y="55" fill="#A1A1AA" font-family="JetBrains Mono, Consolas, monospace" font-size="7.8" font-weight="600" letter-spacing="1.45">REVIEW EVERY TRADE. REFINE EVERY DECISION.</text>
  <circle cx="345" cy="17" r="3.2" fill="#A3E635"/>
</svg>
